<svg xmlns="http://www.w3.org/2000/svg" viewBox="0 0 100 100">
  <style>
    @keyframes rotate {
      from { transform: rotate(0deg); }
      to { transform: rotate(360deg); }
    }
    .gear {
      transform-origin: 50% 50%;
      animation: rotate 8s linear infinite;
    }
    .inner-gear {
      transform-origin: 50% 50%;
      animation: rotate 8s linear infinite reverse;
    }
  </style>
  
  <!-- Outer gear -->
  <path class="gear" fill="#4A90E2" d="M50 20c-2.5 0-4.9.2-7.2.7l-1.5-7.1c-0.3-1.5-1.7-2.5-3.2-2.2l-6 1.3c-1.5.3-2.5 1.7-2.2 3.2l1.5 7.1c-4.8 2.2-9 5.4-12.4 9.4l-6.1-3.9c-1.3-0.8-3-0.4-3.8 0.9l-3.3 5.2c-0.8 1.3-0.4 3 0.9 3.8l6.1 3.9c-1.4 5.1-1.6 10.5-0.6 15.7l-6.8 2.5c-1.4.5-2.2 2-1.7 3.4l2 5.8c0.5 1.4 2 2.2 3.4 1.7l6.8-2.5c2.9 4.4 6.9 8 11.7 10.4l-2.8 6.6c-0.6 1.4 0 3 1.4 3.6l5.6 2.4c1.4.6 3 0 3.6-1.4l2.8-6.6c5.1 1 10.4.7 15.4-0.8l3.9 6.1c0.8 1.3 2.5 1.7 3.8 0.9l5.2-3.3c1.3-0.8 1.7-2.5 0.9-3.8l-3.9-6.1c4-3.4 7.2-7.6 9.4-12.4l7.1 1.5c1.5.3 2.9-0.7 3.2-2.2l1.3-6c0.3-1.5-0.7-2.9-2.2-3.2l-7.1-1.5c0.5-2.4.7-4.8.7-7.2 0-2.5-0.2-4.9-0.7-7.2l7.1-1.5c1.5-0.3 2.5-1.7 2.2-3.2l-1.3-6c-0.3-1.5-1.7-2.5-3.2-2.2l-7.1 1.5c-2.2-4.8-5.4-9-9.4-12.4l3.9-6.1c0.8-1.3 0.4-3-0.9-3.8l-5.2-3.3c-1.3-0.8-3-0.4-3.8 0.9l-3.9 6.1c-5.1-1.4-10.5-1.6-15.7-0.6l-2.5-6.8c-0.5-1.4-2-2.2-3.4-1.7l-5.8 2c-1.4.5-2.2 2-1.7 3.4l2.5 6.8c-4.4 2.9-8 6.9-10.4 11.7l-6.6-2.8c-1.4-0.6-3 0-3.6 1.4l-2.4 5.6c-0.6 1.4 0 3 1.4 3.6l6.6 2.8c-1 5.1-0.7 10.4 0.8 15.4l-6.1 3.9c-1.3 0.8-1.7 2.5-0.9 3.8l3.3 5.2c0.8 1.3 2.5 1.7 3.8 0.9l6.1-3.9c3.4 4 7.6 7.2 12.4 9.4l-1.5 7.1c-0.3 1.5 0.7 2.9 2.2 3.2l6 1.3c1.5.3 2.9-0.7 3.2-2.2l1.5-7.1c2.4.5 4.8.7 7.2.7s4.9-0.2 7.2-0.7"/>

  <!-- Inner gear -->
  <path class="inner-gear" fill="#2D74DA" d="M50 35c-8.3 0-15 6.7-15 15s6.7 15 15 15 15-6.7 15-15-6.7-15-15-15zm0 25c-5.5 0-10-4.5-10-10s4.5-10 10-10 10 4.5 10 10-4.5 10-10 10z"/>
</svg>